<svg xmlns="http://www.w3.org/2000/svg" viewBox="0 0 512 202" fill="currentColor"><path d="M0,0.231 C0,0.231 20.295,-2.329 33.826,9.657 C42.177,17.051 44.611,28.836 44.611,28.836 L72.242,136.415 L95.224,48.367 C97.456,39.009 101.494,27.434 107.873,19.611 C116.014,9.648 132.541,9.019 134.303,9.019 C136.066,9.019 152.584,9.648 160.718,19.611 C167.097,27.434 171.134,39 173.375,48.367 L196.356,136.415 L223.979,28.836 C223.979,28.836 226.422,17.051 234.773,9.657 C248.303,-2.329 268.59,0.231 268.59,0.231 L215.678,201.279 C215.678,201.279 198.228,202.547 189.49,198.073 C178.017,192.197 172.569,187.665 165.619,160.302 L144.006,72.784 L142.747,67.748 C141.589,63.182 140.792,60.11 140.506,59.187 C139.726,56.66 138.794,50.642 134.295,50.642 C129.897,50.642 128.881,56.668 128.084,59.187 C127.79,60.11 126.993,63.173 125.843,67.748 L102.979,160.311 C96.029,187.665 90.574,192.206 79.1,198.073 C70.362,202.547 52.912,201.279 52.912,201.279 L0,0.231 Z M318.934,33.578 L318.934,40.838 L318.951,40.838 L318.951,162.199 C318.858,187.103 316.45,192.634 305.975,198.367 C297.833,202.823 285.377,201.136 285.377,201.136 L285.377,65.188 C285.377,58.364 287.492,53.89 295.29,49.878 C299.948,47.478 304.287,45.639 308.803,42.92 C314.972,39.227 318.934,33.578 318.934,33.578 Z M470.598,130.133 L510.754,201.279 C510.754,201.279 492.994,201.987 484.403,198.191 C473.048,193.168 467.584,186.876 459.299,172.42 L434.102,128.473 L408.62,172.983 C400.521,187.303 394.881,193.444 383.51,198.191 C374.777,201.844 356.885,201.279 356.885,201.279 L397.042,130.133 L358.576,0.231 C358.576,0.231 377.034,-1.323 387.426,5.39 C395.341,10.502 399.463,17.759 403.165,28.836 L432.996,112.108 L433.563,112.108 L463.394,28.836 C467.098,17.759 471.219,10.502 479.133,5.39 C489.525,-1.323 507.984,0.231 507.984,0.231 L470.598,130.133 Z"/></svg>
