<svg width="595" height="842" viewBox="0 0 595 842" fill="none" xmlns="http://www.w3.org/2000/svg">
<g clip-path="url(#clip0_28_7062)">
<path d="M702.685 263.027C672.393 119.324 591.461 161.287 512.495 237.958C474.685 274.675 440.524 317.907 406.079 355.914L350.565 427.58C357.384 429.087 351.308 435.208 351.526 439.797C355.46 438.967 363.482 427.339 364.4 427.077C366.301 426.53 365.689 428.716 366.06 428.628C367.591 428.192 370.498 425.853 371.787 424.694C398.714 400.696 428.262 360.81 453.724 333.206C491.492 292.291 571.834 197.306 627.719 192.607C670.644 189.001 682.119 260.098 687.452 291.702C713.264 444.605 675.256 682.922 607.372 822.166C549.672 940.537 417.182 1106.38 266.923 1059.11C138.956 1018.85 134.17 851.54 154.605 742.632C160.79 709.717 170.997 677.807 180.898 645.898L182.755 648.062C184.089 644.237 181.182 644.937 181.16 644.718C181.116 644.084 185.597 633.768 186.078 632.807C186.602 631.822 188.941 631.583 189.094 631.298C189.268 630.992 187.411 629.703 187.607 628.326C188.351 623.015 191.388 620.611 192.438 617.638C216.37 549.383 269.283 450.113 311.858 391.036C320.251 379.388 321.387 379.672 332.141 371.475C342.653 363.455 334.348 344.636 323.092 348.461C310.591 352.723 293.39 385.397 286.418 397.222C208.742 528.86 133.274 669.765 129.099 826.362C126.192 934.92 164.156 1061.84 286.221 1082.29C457.309 1110.97 597.69 903.448 649.488 765.143C701.09 627.321 733.218 407.712 702.707 263.027H702.685Z" fill="#141414"/>
<path d="M674.617 774.94C676.431 767.159 676.345 767.159 679.404 759.859C689.567 735.665 695.599 707.865 700.298 682.25C701.369 676.435 704.735 666.688 703.992 661.574C702.746 653.247 703.949 646.188 704.014 637.882C704.014 635.849 704.123 633.773 704.057 631.741C703.926 628.506 701.785 624.288 704.407 621.468L704.801 625.271C706.637 625.337 705.697 620.266 705.434 620.004C705.063 619.61 703.38 620.375 703.205 619.523C703.096 618.911 702.768 611.109 702.878 610.693C703.184 609.316 705.085 608.639 704.779 606.956C700.998 609.032 702.833 605.208 702.505 601.994C700.08 578.412 693.741 557.824 687.993 535.181C683.557 528.974 681.568 521.674 678.224 514.79C675.36 508.91 669.918 501.392 668.148 495.469C666.006 492.934 654.86 479.689 653.985 477.875C653.134 476.105 655.319 474.618 651.297 472.236C649.33 471.078 646.861 471.843 647.538 469.132C651.21 469.854 647.713 467.013 645.943 466.138C639.67 463.078 637.025 457.833 631.474 453.9C627.693 451.21 622.185 449.594 618.579 446.184C616.503 444.13 619.999 445.354 620.066 446.227L620.021 444.742C615.738 442.862 611.935 439.977 607.87 437.813C592.483 429.617 572.572 422.47 555.415 419.41C552.225 418.842 549.449 418.908 545.798 417.552C545.1 417.291 545.296 416.088 544.772 416.023C543.22 415.826 538.631 417.071 535.657 416.853C523.484 415.935 514.676 414.886 502.087 416.067C496.886 416.547 491.443 418.056 486.176 418.405C481.826 411.805 474.593 408.176 466.9 406.975C451.185 404.505 429.176 413.051 414.664 419.52C313.995 464.368 221.458 548.032 174.773 648.438C125.117 755.248 125.445 893.247 174.008 999.947C180.587 1014.39 188.652 1026.96 200.104 1038C200.76 1039.33 199.121 1039.35 198.203 1039.13C194.64 1038.3 189.985 1030.02 186.75 1027.68C186.182 1027.55 186.226 1028.47 186.379 1028.82C186.794 1029.82 191.034 1034.92 192.083 1036.1C193.701 1037.91 196.345 1039.53 197.569 1040.91C200.869 1044.62 203.514 1048.9 206.967 1052.49C204.803 1053.89 203.405 1050.87 202.006 1049.82C197.809 1046.74 193.351 1042.96 189.788 1039.13C188.105 1037.34 186.444 1034.65 184.718 1032.75C184.171 1032.16 183.516 1030.52 182.554 1031.86C189.176 1040.62 196.323 1049.21 205.197 1055.79C209.021 1058.63 216.737 1062.24 219.622 1065.03C220.911 1066.28 220.758 1068.27 222.616 1069.67C228.495 1074.08 243.117 1078.26 250.482 1079.98C281.233 1087.11 307.679 1086.45 338.321 1079.22C345.097 1077.62 355.521 1073.36 361.795 1072.9C376.35 1071.79 393.682 1062.41 407.058 1055.57C458.966 1029.01 514.414 990.964 555.896 950.159C590.56 916.042 623.803 874.538 647.67 831.963C650.75 826.477 652.718 820.684 655.319 815.199C658.816 807.812 663.493 800.359 666.968 792.491C668.782 788.403 673.809 778.459 674.617 774.962V774.94ZM552.05 461.112L549.908 461.33L541.362 457.286C545.318 457.286 548.335 460.237 552.05 461.112ZM550.52 467.231L548.466 467.384L544.422 464.936L550.52 467.231ZM540.597 456.543C540.794 457.899 538.871 457.308 538.106 457.133C536.86 456.849 534.893 456.435 534.499 455.014L540.597 456.543ZM540.597 462.642L538.259 463.056L532.204 460.347L540.597 462.642ZM532.969 454.249V454.992C527.899 454.664 527.768 452.413 532.969 454.249ZM211.535 1055.15V1055.9C209.743 1056.71 204.169 1051.2 211.535 1055.15ZM533.385 945.241C506.633 980.102 487.947 999.837 448.234 1020.43C388.196 1051.55 316.071 1070.96 251.815 1040.45C241.434 1035.51 232.386 1027.97 223.73 1020.43C196.126 996.319 181.636 958.049 172.806 923.233C158.054 865.096 156.873 801.801 165.834 742.594C181.417 639.543 250.985 539.727 334.518 479.121C362.101 459.101 392.807 439.802 425.111 428.458C427.558 427.606 433.526 425.399 435.711 425.224C437.372 425.093 438.464 426.011 439.404 426.033C439.908 426.033 439.71 424.568 440.301 424.438C441.874 424.066 443.448 425.137 444.803 425.137C446.486 425.137 448.168 423.651 450.136 423.673C450.726 423.673 453.457 424.328 453.567 424.481C454.332 425.508 452.539 426.514 451.819 426.929C448.234 428.939 442.814 429.967 438.858 431.54C395.059 448.981 353.074 475.077 321.448 510.353C316.946 515.38 311.307 521.937 309.253 528.319C314.935 523.51 320.093 517.98 325.666 513.041C334.059 505.588 342.845 499.381 351.959 492.781C356.374 489.589 360.81 484.519 365.707 482.093C376.001 476.957 394.25 467.013 404.894 464.718C411.822 463.209 419.406 462.401 426.269 460.98C434.99 459.166 443.688 455.756 452.78 455.823L451.25 457.331C455.337 457.286 459.796 456.107 463.839 455.801C502.721 452.872 537.843 460.565 570.736 481.765L571.873 481.372C566.082 476.454 559.109 473.066 552.421 469.526C551.241 468.324 553.033 468.914 553.602 469.089C558.082 470.531 570.714 477.525 574.124 480.629C575.917 482.268 576.092 484.082 577.599 485.569C580.135 488.082 585.795 491.119 589.052 493.961C599.609 503.206 610.296 517.456 618.011 529.127C625.442 540.404 633.725 563.266 637.747 576.576C641.594 589.34 643.735 600.268 645.178 613.425C645.484 616.157 646.205 619.151 646.62 621.905C648.609 634.713 649.483 647.542 649.636 660.765C650.882 766.526 595.915 863.675 533.363 945.22L533.385 945.241Z" fill="#141414"/>
<path d="M725.956 400.616C650.728 329.737 555.174 345.408 473.608 395.414C417.745 429.662 380.109 450.163 337.512 502.245C247.837 611.831 113.204 848.618 172.434 990.922C211.643 1085.1 306.738 1101.03 395.998 1071.68C539.81 1024.38 683.775 879.019 744.337 742.07C789.207 640.616 815.872 485.351 725.934 400.616H725.956ZM407.866 1051.27C253.737 1109.27 152.152 1023.18 173.723 862.3C189.285 746.267 292.926 555.53 378.185 475.145C381.333 472.172 386.972 466.249 390.709 465.877L385.07 473.964L383.868 471.932L373.77 484.433L375.387 485.22L370.557 488.455L372.175 489.242C369.268 492.126 367.608 496.083 365.269 499.318C355.062 513.371 345.03 528.189 337.096 545.368C335.654 548.493 336.79 550.744 336.681 550.985C336.637 551.094 334.54 550.635 334.167 551.487C317.207 590.194 302.28 656.68 317.711 697.091C318.256 698.534 318.235 701.637 320.508 701.135C320.508 698.031 323.546 695.387 323.83 692.654C324.835 682.709 320.966 665.138 321.317 653.073C323.458 577.955 375.672 485.897 433.524 439.192C454.244 422.472 454.965 430.887 475.707 426.559C492.207 423.106 484.449 408.593 469.849 410.56C550.191 355.505 659.318 342.042 729.257 421.488C785.099 484.936 781.23 577.43 761.123 654.647C719.225 815.593 563.961 992.474 407.888 1051.2L407.866 1051.27Z" fill="#141414"/>
<path d="M483.344 825.125L482.032 820.989H482.728L483.456 823.541L483.68 824.429H483.696C483.776 824.066 483.845 823.776 483.904 823.557L484.6 820.989H485.28L485.952 823.557L486.152 824.429H486.168C486.253 824.066 486.331 823.77 486.4 823.541L487.168 820.989H487.84L486.488 825.125H485.824L485.136 822.621L484.936 821.757H484.92C484.845 822.104 484.776 822.392 484.712 822.621L484.016 825.125H483.344ZM489.536 825.125L488.224 820.989H488.92L489.648 823.541L489.872 824.429H489.888C489.968 824.066 490.038 823.776 490.096 823.557L490.792 820.989H491.472L492.144 823.557L492.344 824.429H492.36C492.446 824.066 492.523 823.77 492.592 823.541L493.36 820.989H494.032L492.68 825.125H492.016L491.328 822.621L491.128 821.757H491.112C491.038 822.104 490.968 822.392 490.904 822.621L490.208 825.125H489.536ZM495.728 825.125L494.416 820.989H495.112L495.84 823.541L496.064 824.429H496.08C496.16 824.066 496.23 823.776 496.288 823.557L496.984 820.989H497.664L498.336 823.557L498.536 824.429H498.552C498.638 824.066 498.715 823.77 498.784 823.541L499.552 820.989H500.224L498.872 825.125H498.208L497.52 822.621L497.32 821.757H497.304C497.23 822.104 497.16 822.392 497.096 822.621L496.4 825.125H495.728ZM500.335 825.125V824.333H501.111V825.125H500.335ZM505.112 824.613C504.75 825.029 504.267 825.237 503.664 825.237C503.062 825.237 502.576 825.029 502.208 824.613C501.846 824.197 501.664 823.68 501.664 823.061C501.664 822.442 501.846 821.925 502.208 821.509C502.576 821.093 503.062 820.885 503.664 820.885C504.267 820.885 504.75 821.093 505.112 821.509C505.475 821.925 505.656 822.442 505.656 823.061C505.656 823.68 505.475 824.197 505.112 824.613ZM502.672 824.237C502.907 824.541 503.238 824.693 503.664 824.693C504.091 824.693 504.419 824.541 504.648 824.237C504.878 823.928 504.992 823.536 504.992 823.061C504.992 822.581 504.875 822.189 504.64 821.885C504.411 821.576 504.086 821.421 503.664 821.421C503.238 821.421 502.907 821.576 502.672 821.885C502.443 822.194 502.328 822.586 502.328 823.061C502.328 823.536 502.443 823.928 502.672 824.237ZM507.151 819.405V821.533H507.167C507.487 821.106 507.924 820.893 508.479 820.893C508.916 820.893 509.257 821.008 509.503 821.237C509.748 821.466 509.871 821.794 509.871 822.221V825.125H509.223V822.277C509.223 822.01 509.14 821.805 508.975 821.661C508.809 821.512 508.58 821.437 508.287 821.437C507.956 821.437 507.684 821.544 507.471 821.757C507.257 821.97 507.151 822.245 507.151 822.581V825.125H506.503V819.405H507.151ZM514.177 825.165C513.766 825.165 513.529 824.96 513.465 824.549H513.457C513.116 824.986 512.657 825.205 512.081 825.205C511.67 825.205 511.334 825.106 511.073 824.909C510.812 824.712 510.681 824.426 510.681 824.053C510.681 823.861 510.71 823.696 510.769 823.557C510.833 823.413 510.913 823.298 511.009 823.213C511.105 823.122 511.236 823.045 511.401 822.981C511.572 822.912 511.734 822.861 511.889 822.829C512.044 822.792 512.241 822.754 512.481 822.717C512.636 822.696 512.745 822.68 512.809 822.669C512.878 822.653 512.966 822.632 513.073 822.605C513.18 822.573 513.254 822.538 513.297 822.501C513.34 822.464 513.38 822.413 513.417 822.349C513.454 822.285 513.473 822.21 513.473 822.125C513.473 821.89 513.39 821.712 513.225 821.589C513.065 821.461 512.838 821.397 512.545 821.397C511.878 821.397 511.534 821.701 511.513 822.309H510.889C510.9 821.888 511.044 821.549 511.321 821.293C511.604 821.037 512.009 820.909 512.537 820.909C513.556 820.909 514.065 821.346 514.065 822.221V824.189C514.065 824.37 514.094 824.498 514.153 824.573C514.217 824.648 514.334 824.666 514.505 824.629H514.529V825.101C514.422 825.144 514.305 825.165 514.177 825.165ZM512.225 824.709C512.625 824.709 512.934 824.594 513.153 824.365C513.372 824.13 513.481 823.874 513.481 823.597V822.893C513.284 823.016 512.969 823.117 512.537 823.197C512.377 823.229 512.252 823.256 512.161 823.277C512.07 823.293 511.966 823.325 511.849 823.373C511.732 823.416 511.644 823.464 511.585 823.517C511.526 823.57 511.476 823.642 511.433 823.733C511.39 823.818 511.369 823.92 511.369 824.037C511.369 824.485 511.654 824.709 512.225 824.709ZM515.855 820.989V821.533H515.871C516.191 821.106 516.629 820.893 517.183 820.893C517.621 820.893 517.962 821.008 518.207 821.237C518.453 821.466 518.575 821.794 518.575 822.221V825.125H517.927V822.277C517.927 822.01 517.845 821.805 517.679 821.661C517.514 821.512 517.285 821.437 516.991 821.437C516.661 821.437 516.389 821.544 516.175 821.757C515.962 821.97 515.855 822.245 515.855 822.581V825.125H515.207V820.989H515.855ZM522.882 825.165C522.471 825.165 522.234 824.96 522.17 824.549H522.162C521.82 824.986 521.362 825.205 520.786 825.205C520.375 825.205 520.039 825.106 519.778 824.909C519.516 824.712 519.386 824.426 519.386 824.053C519.386 823.861 519.415 823.696 519.474 823.557C519.538 823.413 519.618 823.298 519.714 823.213C519.81 823.122 519.94 823.045 520.106 822.981C520.276 822.912 520.439 822.861 520.594 822.829C520.748 822.792 520.946 822.754 521.186 822.717C521.34 822.696 521.45 822.68 521.514 822.669C521.583 822.653 521.671 822.632 521.778 822.605C521.884 822.573 521.959 822.538 522.002 822.501C522.044 822.464 522.084 822.413 522.122 822.349C522.159 822.285 522.178 822.21 522.178 822.125C522.178 821.89 522.095 821.712 521.93 821.589C521.77 821.461 521.543 821.397 521.25 821.397C520.583 821.397 520.239 821.701 520.218 822.309H519.594C519.604 821.888 519.748 821.549 520.026 821.293C520.308 821.037 520.714 820.909 521.242 820.909C522.26 820.909 522.77 821.346 522.77 822.221V824.189C522.77 824.37 522.799 824.498 522.858 824.573C522.922 824.648 523.039 824.666 523.21 824.629H523.234V825.101C523.127 825.144 523.01 825.165 522.882 825.165ZM520.93 824.709C521.33 824.709 521.639 824.594 521.858 824.365C522.076 824.13 522.186 823.874 522.186 823.597V822.893C521.988 823.016 521.674 823.117 521.242 823.197C521.082 823.229 520.956 823.256 520.866 823.277C520.775 823.293 520.671 823.325 520.554 823.373C520.436 823.416 520.348 823.464 520.29 823.517C520.231 823.57 520.18 823.642 520.138 823.733C520.095 823.818 520.074 823.92 520.074 824.037C520.074 824.485 520.359 824.709 520.93 824.709ZM523.941 825.125V824.333H524.717V825.125H523.941ZM527.274 825.245C526.708 825.245 526.268 825.12 525.954 824.869C525.644 824.613 525.474 824.25 525.442 823.781H526.106C526.18 824.394 526.575 824.701 527.29 824.701C527.615 824.701 527.855 824.64 528.01 824.517C528.17 824.389 528.25 824.224 528.25 824.021C528.25 823.802 528.172 823.645 528.018 823.549C527.863 823.453 527.58 823.362 527.17 823.277C526.999 823.24 526.863 823.21 526.762 823.189C526.666 823.162 526.548 823.128 526.41 823.085C526.271 823.037 526.162 822.986 526.082 822.933C526.007 822.874 525.93 822.805 525.85 822.725C525.77 822.645 525.711 822.546 525.674 822.429C525.642 822.312 525.626 822.181 525.626 822.037C525.626 821.685 525.754 821.408 526.01 821.205C526.271 821.002 526.639 820.901 527.114 820.901C528.095 820.901 528.636 821.333 528.738 822.197H528.074C528.042 821.925 527.948 821.728 527.794 821.605C527.639 821.477 527.407 821.413 527.098 821.413C526.815 821.413 526.604 821.469 526.466 821.581C526.332 821.688 526.266 821.829 526.266 822.005C526.266 822.208 526.346 822.352 526.506 822.437C526.666 822.517 526.956 822.6 527.378 822.685C527.634 822.738 527.834 822.789 527.978 822.837C528.127 822.88 528.282 822.949 528.442 823.045C528.602 823.136 528.719 823.258 528.794 823.413C528.868 823.568 528.906 823.76 528.906 823.989C528.906 824.394 528.756 824.706 528.458 824.925C528.159 825.138 527.764 825.245 527.274 825.245ZM529.384 821.517V820.989H529.984V819.685H530.632V820.989H531.432V821.517H530.632V824.205C530.632 824.461 530.77 824.589 531.048 824.589C531.165 824.589 531.28 824.57 531.392 824.533H531.416V825.093C531.24 825.13 531.066 825.149 530.896 825.149C530.288 825.149 529.984 824.882 529.984 824.349V821.517H529.384ZM535.581 825.125H534.933V824.557H534.917C534.592 825 534.176 825.221 533.669 825.221C533.242 825.221 532.904 825.101 532.653 824.861C532.402 824.616 532.277 824.28 532.277 823.853V820.989H532.925V823.837C532.925 824.104 533.005 824.312 533.165 824.461C533.33 824.61 533.56 824.685 533.853 824.685C534.178 824.685 534.44 824.576 534.637 824.357C534.834 824.138 534.933 823.864 534.933 823.533V820.989H535.581V825.125ZM538.257 825.245C537.692 825.245 537.244 825.05 536.913 824.661C536.588 824.266 536.425 823.736 536.425 823.069C536.425 822.397 536.596 821.866 536.937 821.477C537.279 821.088 537.713 820.893 538.241 820.893C538.801 820.893 539.233 821.12 539.537 821.573H539.553V819.405H540.201V825.125H539.553V824.621H539.537C539.212 825.037 538.785 825.245 538.257 825.245ZM538.281 824.701C538.724 824.701 539.052 824.554 539.265 824.261C539.484 823.968 539.593 823.573 539.593 823.077C539.593 822.586 539.476 822.192 539.241 821.893C539.012 821.594 538.689 821.445 538.273 821.445C537.895 821.445 537.601 821.597 537.393 821.901C537.191 822.2 537.089 822.592 537.089 823.077C537.089 823.562 537.191 823.954 537.393 824.253C537.601 824.552 537.897 824.701 538.281 824.701ZM541.279 825.125V820.989H541.927V825.125H541.279ZM541.279 820.205V819.405H541.927V820.205H541.279ZM546.226 824.613C545.864 825.029 545.381 825.237 544.778 825.237C544.176 825.237 543.69 825.029 543.322 824.613C542.96 824.197 542.778 823.68 542.778 823.061C542.778 822.442 542.96 821.925 543.322 821.509C543.69 821.093 544.176 820.885 544.778 820.885C545.381 820.885 545.864 821.093 546.226 821.509C546.589 821.925 546.77 822.442 546.77 823.061C546.77 823.68 546.589 824.197 546.226 824.613ZM543.786 824.237C544.021 824.541 544.352 824.693 544.778 824.693C545.205 824.693 545.533 824.541 545.762 824.237C545.992 823.928 546.106 823.536 546.106 823.061C546.106 822.581 545.989 822.189 545.754 821.885C545.525 821.576 545.2 821.421 544.778 821.421C544.352 821.421 544.021 821.576 543.786 821.885C543.557 822.194 543.442 822.586 543.442 823.061C543.442 823.536 543.557 823.928 543.786 824.237Z" fill="#4D4D4D"/>
</g>
<defs>
<clipPath id="clip0_28_7062">
<rect width="595" height="842" fill="white"/>
</clipPath>
</defs>
</svg>
