<svg width="594" height="841" viewBox="0 0 594 841" fill="none" xmlns="http://www.w3.org/2000/svg">
<g clip-path="url(#clip0_38_7104)">
<path d="M701.685 262.027C671.393 118.324 590.461 160.287 511.495 236.958C473.685 273.675 439.524 316.907 405.079 354.914L349.565 426.58C356.384 428.087 350.308 434.208 350.526 438.797C354.46 437.967 362.482 426.339 363.4 426.077C365.301 425.53 364.689 427.716 365.06 427.628C366.591 427.192 369.498 424.853 370.787 423.694C397.714 399.696 427.262 359.81 452.724 332.206C490.492 291.291 570.834 196.306 626.719 191.607C669.644 188.001 681.119 259.098 686.452 290.702C712.264 443.605 674.256 681.922 606.372 821.166C548.672 939.537 416.182 1105.38 265.923 1058.11C137.956 1017.85 133.17 850.54 153.605 741.632C159.79 708.717 169.997 676.807 179.898 644.898L181.755 647.062C183.089 643.237 180.182 643.937 180.16 643.718C180.116 643.084 184.597 632.768 185.078 631.807C185.602 630.822 187.941 630.583 188.094 630.298C188.268 629.992 186.411 628.703 186.607 627.326C187.351 622.015 190.388 619.611 191.438 616.638C215.37 548.383 268.283 449.113 310.858 390.036C319.251 378.388 320.387 378.672 331.141 370.475C341.653 362.455 333.348 343.636 322.092 347.461C309.591 351.723 292.39 384.397 285.418 396.222C207.742 527.86 132.274 668.765 128.099 825.362C125.192 933.92 163.156 1060.84 285.221 1081.29C456.309 1109.97 596.69 902.448 648.488 764.143C700.09 626.321 732.218 406.712 701.707 262.027H701.685Z" fill="#141414"/>
<path d="M673.617 773.94C675.431 766.159 675.345 766.159 678.404 758.859C688.567 734.665 694.599 706.865 699.298 681.25C700.369 675.435 703.735 665.688 702.992 660.574C701.746 652.247 702.949 645.188 703.014 636.882C703.014 634.849 703.123 632.773 703.057 630.741C702.926 627.506 700.785 623.288 703.407 620.468L703.801 624.271C705.637 624.337 704.697 619.266 704.434 619.004C704.063 618.61 702.38 619.375 702.205 618.523C702.096 617.911 701.768 610.109 701.878 609.693C702.184 608.316 704.085 607.639 703.779 605.956C699.998 608.032 701.833 604.208 701.505 600.994C699.08 577.412 692.741 556.824 686.993 534.181C682.557 527.974 680.568 520.674 677.224 513.79C674.36 507.91 668.918 500.392 667.148 494.469C665.006 491.934 653.86 478.689 652.985 476.875C652.134 475.105 654.319 473.618 650.297 471.236C648.33 470.078 645.861 470.843 646.538 468.132C650.21 468.854 646.713 466.013 644.943 465.138C638.67 462.078 636.025 456.833 630.474 452.9C626.693 450.21 621.185 448.594 617.579 445.184C615.503 443.13 618.999 444.354 619.066 445.227L619.021 443.742C614.738 441.862 610.935 438.977 606.87 436.813C591.483 428.617 571.572 421.47 554.415 418.41C551.225 417.842 548.449 417.908 544.798 416.552C544.1 416.291 544.296 415.088 543.772 415.023C542.22 414.826 537.631 416.071 534.657 415.853C522.484 414.935 513.676 413.886 501.087 415.067C495.886 415.547 490.443 417.056 485.176 417.405C480.826 410.805 473.593 407.176 465.9 405.975C450.185 403.505 428.176 412.051 413.664 418.52C312.995 463.368 220.458 547.032 173.773 647.438C124.117 754.248 124.445 892.247 173.008 998.947C179.587 1013.39 187.652 1025.96 199.104 1037C199.76 1038.33 198.121 1038.35 197.203 1038.13C193.64 1037.3 188.985 1029.02 185.75 1026.68C185.182 1026.55 185.226 1027.47 185.379 1027.82C185.794 1028.82 190.034 1033.92 191.083 1035.1C192.701 1036.91 195.345 1038.53 196.569 1039.91C199.869 1043.62 202.514 1047.9 205.967 1051.49C203.803 1052.89 202.405 1049.87 201.006 1048.82C196.809 1045.74 192.351 1041.96 188.788 1038.13C187.105 1036.34 185.444 1033.65 183.718 1031.75C183.171 1031.16 182.516 1029.52 181.554 1030.86C188.176 1039.62 195.323 1048.21 204.197 1054.79C208.021 1057.63 215.737 1061.24 218.622 1064.03C219.911 1065.28 219.758 1067.27 221.616 1068.67C227.495 1073.08 242.117 1077.26 249.482 1078.98C280.233 1086.11 306.679 1085.45 337.321 1078.22C344.097 1076.62 354.521 1072.36 360.795 1071.9C375.35 1070.79 392.682 1061.41 406.058 1054.57C457.966 1028.01 513.414 989.964 554.896 949.159C589.56 915.042 622.803 873.538 646.67 830.963C649.75 825.477 651.718 819.684 654.319 814.199C657.816 806.812 662.493 799.359 665.968 791.491C667.782 787.403 672.809 777.459 673.617 773.962V773.94ZM551.05 460.112L548.908 460.33L540.362 456.286C544.318 456.286 547.335 459.237 551.05 460.112ZM549.52 466.231L547.466 466.384L543.422 463.936L549.52 466.231ZM539.597 455.543C539.794 456.899 537.871 456.308 537.106 456.133C535.86 455.849 533.893 455.435 533.499 454.014L539.597 455.543ZM539.597 461.642L537.259 462.056L531.204 459.347L539.597 461.642ZM531.969 453.249V453.992C526.899 453.664 526.768 451.413 531.969 453.249ZM210.535 1054.15V1054.9C208.743 1055.71 203.169 1050.2 210.535 1054.15ZM532.385 944.241C505.633 979.102 486.947 998.837 447.234 1019.43C387.196 1050.55 315.071 1069.96 250.815 1039.45C240.434 1034.51 231.386 1026.97 222.73 1019.43C195.126 995.319 180.636 957.049 171.806 922.233C157.054 864.096 155.873 800.801 164.834 741.594C180.417 638.543 249.985 538.727 333.518 478.121C361.101 458.101 391.807 438.802 424.111 427.458C426.558 426.606 432.526 424.399 434.711 424.224C436.372 424.093 437.464 425.011 438.404 425.033C438.908 425.033 438.71 423.568 439.301 423.438C440.874 423.066 442.448 424.137 443.803 424.137C445.486 424.137 447.168 422.651 449.136 422.673C449.726 422.673 452.457 423.328 452.567 423.481C453.332 424.508 451.539 425.514 450.819 425.929C447.234 427.939 441.814 428.967 437.858 430.54C394.059 447.981 352.074 474.077 320.448 509.353C315.946 514.38 310.307 520.937 308.253 527.319C313.935 522.51 319.093 516.98 324.666 512.041C333.059 504.588 341.845 498.381 350.959 491.781C355.374 488.589 359.81 483.519 364.707 481.093C375.001 475.957 393.25 466.013 403.894 463.718C410.822 462.209 418.406 461.401 425.269 459.98C433.99 458.166 442.688 454.756 451.78 454.823L450.25 456.331C454.337 456.286 458.796 455.107 462.839 454.801C501.721 451.872 536.843 459.565 569.736 480.765L570.873 480.372C565.082 475.454 558.109 472.066 551.421 468.526C550.241 467.324 552.033 467.914 552.602 468.089C557.082 469.531 569.714 476.525 573.124 479.629C574.917 481.268 575.092 483.082 576.599 484.569C579.135 487.082 584.795 490.119 588.052 492.961C598.609 502.206 609.296 516.456 617.011 528.127C624.442 539.404 632.725 562.266 636.747 575.576C640.594 588.34 642.735 599.268 644.178 612.425C644.484 615.157 645.205 618.151 645.62 620.905C647.609 633.713 648.483 646.542 648.636 659.765C649.882 765.526 594.915 862.675 532.363 944.22L532.385 944.241Z" fill="#141414"/>
<path d="M724.956 399.616C649.728 328.737 554.174 344.408 472.608 394.414C416.745 428.662 379.109 449.163 336.512 501.245C246.837 610.831 112.204 847.618 171.434 989.922C210.643 1084.1 305.738 1100.03 394.998 1070.68C538.81 1023.38 682.775 878.019 743.337 741.07C788.207 639.616 814.872 484.351 724.934 399.616H724.956ZM406.866 1050.27C252.737 1108.27 151.152 1022.18 172.723 861.3C188.285 745.267 291.926 554.53 377.185 474.145C380.333 471.172 385.972 465.249 389.709 464.877L384.07 472.964L382.868 470.932L372.77 483.433L374.387 484.22L369.557 487.455L371.175 488.242C368.268 491.126 366.608 495.083 364.269 498.318C354.062 512.371 344.03 527.189 336.096 544.368C334.654 547.493 335.79 549.744 335.681 549.985C335.637 550.094 333.54 549.635 333.167 550.487C316.207 589.194 301.28 655.68 316.711 696.091C317.256 697.534 317.235 700.637 319.508 700.135C319.508 697.031 322.546 694.387 322.83 691.654C323.835 681.709 319.966 664.138 320.317 652.073C322.458 576.955 374.672 484.897 432.524 438.192C453.244 421.472 453.965 429.887 474.707 425.559C491.207 422.106 483.449 407.593 468.849 409.56C549.191 354.505 658.318 341.042 728.257 420.488C784.099 483.936 780.23 576.43 760.123 653.647C718.225 814.593 562.961 991.474 406.888 1050.2L406.866 1050.27Z" fill="#141414"/>
</g>
<defs>
<clipPath id="clip0_38_7104">
<rect width="594" height="841" fill="white"/>
</clipPath>
</defs>
</svg>
