<svg width="466" height="674" viewBox="0 0 466 674" fill="none" xmlns="http://www.w3.org/2000/svg">
<g clip-path="url(#clip0_38_7104)">
<path d="M573.685 95.0266C543.393 -48.676 462.461 -6.71265 383.495 69.9578C345.685 106.675 311.524 149.907 277.079 187.914L221.565 259.58C228.384 261.087 222.308 267.208 222.526 271.797C226.46 270.967 234.482 259.339 235.4 259.077C237.301 258.53 236.689 260.716 237.06 260.628C238.591 260.192 241.498 257.853 242.787 256.694C269.714 232.696 299.262 192.81 324.724 165.206C362.492 124.291 442.834 29.3058 498.719 24.6068C541.644 21.0006 553.119 92.0979 558.452 123.702C584.264 276.605 546.256 514.922 478.372 654.166C420.672 772.537 288.182 938.379 137.923 891.105C9.95622 850.847 5.16977 683.54 25.6051 574.632C31.7902 541.717 41.997 509.807 51.8977 477.898L53.7554 480.062C55.0886 476.237 52.1818 476.937 52.1599 476.718C52.1163 476.084 56.5967 465.768 57.0775 464.807C57.602 463.822 59.9406 463.583 60.0936 463.298C60.2684 462.992 58.4107 461.703 58.6074 460.326C59.3506 455.015 62.3885 452.611 63.4376 449.638C87.3698 381.383 140.283 282.113 182.858 223.036C191.251 211.388 192.387 211.672 203.141 203.475C213.653 195.455 205.348 176.636 194.092 180.461C181.591 184.723 164.39 217.397 157.418 229.222C79.7421 360.86 4.27369 501.765 0.099211 658.362C-2.80763 766.92 35.156 893.838 157.221 914.295C328.309 942.97 468.69 735.448 520.488 597.143C572.09 459.321 604.218 239.712 573.707 95.0266H573.685Z" fill="#141414"/>
<path d="M545.617 606.94C547.431 599.159 547.345 599.159 550.404 591.859C560.567 567.665 566.599 539.865 571.298 514.25C572.369 508.435 575.735 498.688 574.992 493.574C573.746 485.247 574.949 478.188 575.014 469.882C575.014 467.849 575.123 465.773 575.057 463.741C574.926 460.506 572.785 456.288 575.407 453.468L575.801 457.271C577.637 457.337 576.697 452.266 576.434 452.004C576.063 451.61 574.38 452.375 574.205 451.523C574.096 450.911 573.768 443.109 573.878 442.693C574.184 441.316 576.085 440.639 575.779 438.956C571.998 441.032 573.833 437.208 573.505 433.994C571.08 410.412 564.741 389.824 558.993 367.181C554.557 360.974 552.568 353.674 549.224 346.79C546.36 340.91 540.918 333.392 539.148 327.469C537.006 324.934 525.86 311.689 524.985 309.875C524.134 308.105 526.319 306.618 522.297 304.236C520.33 303.078 517.861 303.843 518.538 301.132C522.21 301.854 518.713 299.013 516.943 298.138C510.67 295.078 508.025 289.833 502.474 285.9C498.693 283.21 493.185 281.594 489.579 278.184C487.503 276.13 490.999 277.354 491.066 278.227L491.021 276.742C486.738 274.862 482.935 271.977 478.87 269.813C463.483 261.617 443.572 254.47 426.415 251.41C423.225 250.842 420.449 250.908 416.798 249.552C416.1 249.291 416.296 248.088 415.772 248.023C414.22 247.826 409.631 249.071 406.657 248.853C394.484 247.935 385.676 246.886 373.087 248.067C367.886 248.547 362.443 250.056 357.176 250.405C352.826 243.805 345.593 240.176 337.9 238.975C322.185 236.505 300.176 245.051 285.664 251.52C184.995 296.368 92.4575 380.032 45.7733 480.438C-3.88329 587.248 -3.55546 725.247 45.0083 831.947C51.587 846.393 59.6518 858.961 71.1042 869.998C71.7599 871.331 70.1207 871.353 69.2028 871.134C65.6403 870.304 60.985 862.021 57.7503 859.682C57.1821 859.551 57.2257 860.469 57.3788 860.818C57.7941 861.823 62.0341 866.916 63.0832 868.097C64.7005 869.91 67.345 871.528 68.569 872.905C71.8692 876.62 74.5138 880.904 77.967 884.489C75.8033 885.887 74.4045 882.87 73.0057 881.822C68.8094 878.74 64.3508 874.959 60.7883 871.134C59.1054 869.343 57.4443 866.653 55.7178 864.752C55.1714 864.162 54.5157 862.523 53.554 863.856C60.1764 872.621 67.3232 881.21 76.1967 887.789C80.0215 890.63 87.7366 894.236 90.6216 897.033C91.9111 898.279 91.7581 900.268 93.6159 901.667C99.4951 906.082 114.117 910.256 121.482 911.983C152.233 919.108 178.679 918.453 209.321 911.218C216.097 909.623 226.521 905.361 232.795 904.902C247.35 903.786 264.682 894.41 278.058 887.57C329.966 861.015 385.414 822.964 426.896 782.159C461.56 748.042 494.803 706.538 518.67 663.963C521.75 658.477 523.718 652.684 526.319 647.199C529.816 639.812 534.493 632.359 537.968 624.491C539.782 620.403 544.809 610.459 545.617 606.962V606.94ZM423.05 293.112L420.908 293.33L412.362 289.286C416.318 289.286 419.335 292.237 423.05 293.112ZM421.52 299.231L419.466 299.384L415.422 296.936L421.52 299.231ZM411.597 288.543C411.794 289.899 409.871 289.308 409.106 289.133C407.86 288.849 405.893 288.435 405.499 287.014L411.597 288.543ZM411.597 294.642L409.259 295.056L403.204 292.347L411.597 294.642ZM403.969 286.249V286.992C398.899 286.664 398.768 284.413 403.969 286.249ZM82.5349 887.155V887.898C80.7427 888.707 75.1695 883.198 82.5349 887.155ZM404.385 777.241C377.633 812.102 358.947 831.837 319.234 852.425C259.196 883.549 187.071 902.956 122.815 872.446C112.434 867.506 103.386 859.966 94.7305 852.425C67.1265 828.319 52.636 790.049 43.8063 755.233C29.0535 697.096 27.8733 633.801 36.8342 574.594C52.4175 471.543 121.985 371.727 205.518 311.121C233.101 291.101 263.807 271.802 296.111 260.458C298.558 259.606 304.526 257.399 306.711 257.224C308.372 257.093 309.464 258.011 310.404 258.033C310.908 258.033 310.71 256.568 311.301 256.438C312.874 256.066 314.448 257.137 315.803 257.137C317.486 257.137 319.168 255.651 321.136 255.673C321.726 255.673 324.457 256.328 324.567 256.481C325.332 257.508 323.539 258.514 322.819 258.929C319.234 260.939 313.814 261.967 309.858 263.54C266.059 280.981 224.074 307.077 192.448 342.353C187.946 347.38 182.307 353.937 180.253 360.319C185.935 355.51 191.093 349.98 196.666 345.041C205.059 337.588 213.845 331.381 222.959 324.781C227.374 321.589 231.81 316.519 236.707 314.093C247.001 308.957 265.25 299.013 275.894 296.718C282.822 295.209 290.406 294.401 297.269 292.98C305.99 291.166 314.688 287.756 323.78 287.823L322.25 289.331C326.337 289.286 330.796 288.107 334.839 287.801C373.721 284.872 408.843 292.565 441.736 313.765L442.873 313.372C437.082 308.454 430.109 305.066 423.421 301.526C422.241 300.324 424.033 300.914 424.602 301.089C429.082 302.531 441.714 309.525 445.124 312.629C446.917 314.268 447.092 316.082 448.599 317.569C451.135 320.082 456.795 323.119 460.052 325.961C470.609 335.206 481.296 349.456 489.011 361.127C496.442 372.404 504.725 395.266 508.747 408.576C512.594 421.34 514.735 432.268 516.178 445.425C516.484 448.157 517.205 451.151 517.62 453.905C519.609 466.713 520.483 479.542 520.636 492.765C521.882 598.526 466.915 695.675 404.363 777.22L404.385 777.241Z" fill="#141414"/>
<path d="M596.956 232.616C521.728 161.737 426.174 177.408 344.608 227.414C288.745 261.662 251.109 282.163 208.512 334.245C118.837 443.831 -15.7955 680.618 43.434 822.922C82.6434 917.099 177.738 933.032 266.998 903.68C410.81 856.383 554.775 711.019 615.337 574.07C660.207 472.616 686.872 317.351 596.934 232.616H596.956ZM278.866 883.266C124.737 941.272 23.1517 855.181 44.7234 694.3C60.2848 578.267 163.926 387.53 249.185 307.145C252.333 304.172 257.972 298.249 261.709 297.877L256.07 305.964L254.868 303.932L244.77 316.433L246.387 317.22L241.557 320.455L243.175 321.242C240.268 324.126 238.608 328.083 236.269 331.318C226.062 345.371 216.03 360.189 208.096 377.368C206.654 380.493 207.79 382.744 207.681 382.985C207.637 383.094 205.54 382.635 205.167 383.487C188.207 422.194 173.28 488.68 188.711 529.091C189.256 530.534 189.235 533.637 191.508 533.135C191.508 530.031 194.546 527.387 194.83 524.654C195.835 514.709 191.966 497.138 192.317 485.073C194.458 409.955 246.672 317.897 304.524 271.192C325.244 254.472 325.965 262.887 346.707 258.559C363.207 255.106 355.449 240.593 340.849 242.56C421.191 187.505 530.318 174.042 600.257 253.488C656.099 316.936 652.23 409.43 632.123 486.647C590.225 647.593 434.961 824.474 278.888 883.2L278.866 883.266Z" fill="#141414"/>
</g>
<defs>
<clipPath id="clip0_38_7104">
<rect width="466" height="674" fill="white"/>
</clipPath>
</defs>
</svg>
