<svg width="171" height="89" viewBox="0 0 171 89" fill="none" xmlns="http://www.w3.org/2000/svg">
<path d="M159.414 80.8101H159.585C159.693 84.3152 160.45 86.6913 161.856 87.964H167.929C169.12 86.8266 169.771 84.8373 169.978 82.087C170.062 81.5754 170.062 81.1505 169.553 81.0659L168.786 80.8947C168.361 80.8101 168.189 81.1505 168.189 81.5754C168.018 84.0446 167.678 85.7485 166.57 85.7485C165.293 85.7485 164.782 84.4716 164.782 79.6157V57.2156C164.782 47.3347 160.353 43.3329 154.647 43.3329C147.918 43.3329 142.978 48.8695 142.978 53.0426C142.978 55.3426 144.085 56.1946 145.958 56.1946C148.087 56.1946 148.855 54.9177 148.855 53.0426C148.855 51.5945 148.514 50.0618 148.003 48.4425C149.024 47.4214 150.558 46.4828 152.516 46.4828C155.581 46.4828 158.905 48.6116 158.905 56.0212V58.15C158.905 60.7904 158.905 61.3866 151.41 64.6231C144.257 67.6884 141.616 70.925 141.616 78.1655C141.616 83.1842 143.259 86.4038 145.722 87.9597H153.791C156.015 86.6617 157.892 84.2412 159.418 80.8059L159.414 80.8101ZM148.172 76.6371C148.172 71.7833 149.62 69.0562 152.685 67.012C154.558 65.8197 156.689 64.7119 158.903 63.86V78.083C157.37 81.8312 155.326 84.812 152.601 84.812C149.535 84.812 148.172 81.8312 148.172 76.635V76.6371Z" fill="#141414"/>
<path d="M129.209 87.9664C128.698 87.9664 128.529 87.8818 128.529 87.3702V86.1779C128.529 85.6663 128.7 85.5818 129.209 85.5818L131.082 85.4972C132.702 85.4127 132.786 84.9011 132.786 78.428V56.624C132.786 49.9797 130.23 47.5105 126.738 47.5105C122.65 47.5105 120.605 50.4913 118.901 54.8356V78.428C118.901 84.9011 118.986 85.4127 120.605 85.4972L122.478 85.5818C122.99 85.5818 123.159 85.6663 123.159 86.1779V87.3702C123.159 87.8818 122.988 87.9664 122.478 87.9664H108.765C108.253 87.9664 108.084 87.8818 108.084 87.3702V86.1779C108.084 85.6663 108.255 85.5818 108.765 85.5818L111.321 85.4972C112.938 85.4127 113.024 84.9011 113.024 78.428V52.9266C113.024 46.4535 112.94 45.9419 111.321 45.9419L109.822 45.7707C109.31 45.7707 109.141 45.6861 109.141 45.1745V43.9822C109.141 43.4706 109.312 43.3861 109.822 43.3861H117.707C118.388 43.3861 118.474 43.5573 118.474 44.3226V51.0007H118.646C120.349 47.0835 123.415 43.3353 128.696 43.3353C133.976 43.3353 138.661 47.2526 138.661 56.0258V78.4259C138.661 84.899 138.746 85.4106 140.365 85.4951L147.994 85.5797C148.506 85.5797 148.675 85.6642 148.675 86.1758V87.3681C148.675 87.8797 148.504 87.9643 147.994 87.9643H129.207L129.209 87.9664Z" fill="#141414"/>
<path d="M102.837 80.6708H103.008C103.12 84.3069 103.93 86.7296 105.439 87.9663H111.198C112.485 86.8585 114.665 84.8164 114.88 81.9498C114.965 81.4382 114.965 81.0133 114.456 80.9287L113.688 80.7575C113.263 80.6729 113.092 81.0133 113.092 81.4382C112.921 83.9074 111.101 85.6113 109.993 85.6113C108.716 85.6113 108.204 84.3344 108.204 79.4785V57.0784C108.204 47.1975 103.776 43.1957 98.0698 43.1957C91.3409 43.1957 86.4005 48.7323 86.4005 52.9053C86.4005 55.2054 87.5082 56.0573 89.3812 56.0573C91.5101 56.0573 92.2775 54.7805 92.2775 52.9053C92.2775 51.4572 91.9371 49.9246 91.4255 48.3053C92.4466 47.2842 93.9813 46.3456 95.9389 46.3456C99.0042 46.3456 102.327 48.4744 102.327 55.884V58.0128C102.327 60.6532 102.327 61.2494 94.8333 64.4859C87.6795 67.5512 85.0391 70.7878 85.0391 78.0283C85.0391 83.2034 86.7852 86.4653 89.377 87.9642H96.9642C99.2981 86.7042 101.258 84.2308 102.841 80.6687L102.837 80.6708ZM91.5946 76.4977C91.5946 71.644 93.0427 68.9169 96.108 66.8726C97.9811 65.6803 100.112 64.5726 102.325 63.7206V77.9437C100.793 81.6919 98.7484 84.6726 96.0235 84.6726C92.9582 84.6726 91.5946 81.6919 91.5946 76.4956V76.4977Z" fill="#141414"/>
<path d="M72.5423 87.9663C72.0307 87.9663 71.8616 87.8817 71.8616 87.3701V86.1778C71.8616 85.6662 72.0328 85.5817 72.5423 85.5817L74.502 85.4971C76.0347 85.4125 76.1213 84.9009 76.1213 78.4278V56.6239C76.1213 49.9795 73.4809 47.5104 70.3289 47.5104C66.4962 47.5104 64.452 50.4911 62.7481 54.8354V78.4278C62.7481 84.9009 62.8326 85.4125 64.452 85.4971L66.325 85.5817C66.8366 85.5817 67.0057 85.6662 67.0057 86.1778V87.3701C67.0057 87.8817 66.8345 87.9663 66.325 87.9663H52.6114C52.0998 87.9663 51.9307 87.8817 51.9307 87.3701V86.1778C51.9307 85.6662 52.1019 85.5817 52.6114 85.5817L55.1672 85.4971C56.7844 85.4125 56.8711 84.9009 56.8711 78.4278V34.4796C56.8711 28.0065 56.7866 27.4949 55.1672 27.4103L53.6684 27.3258C53.1568 27.3258 52.9877 27.2412 52.9877 26.7296V25.5373C52.9877 25.0257 53.1589 24.9412 53.6684 24.9412H61.9807C62.6614 24.9412 62.7481 25.1124 62.7481 25.8777V50.0662H62.9193C64.5365 46.9142 67.2636 43.3373 72.5444 43.3373C77.4849 43.3373 82.0829 47.2546 82.0829 56.0277V78.4278C82.0829 84.9009 82.1674 85.4125 83.7867 85.4971L90.059 85.5817C90.5706 85.5817 90.7397 85.6662 90.7397 86.1778V87.3701C90.7397 87.8817 90.5685 87.9663 90.059 87.9663H72.5444H72.5423Z" fill="#141414"/>
<path d="M55.5126 9.42857C52.5826 -4.47108 44.7544 -0.412171 37.1164 7.00379C33.4592 10.5553 30.155 14.7369 26.8233 18.4131L21.4537 25.345C22.1133 25.4908 21.5256 26.0828 21.5467 26.5267C21.9272 26.4464 22.7031 25.3217 22.7919 25.2964C22.9758 25.2435 22.9166 25.4549 22.9525 25.4464C23.1005 25.4042 23.3817 25.178 23.5064 25.0659C26.1109 22.7447 28.969 18.8867 31.4318 16.2167C35.0849 12.2592 42.856 3.07172 48.2615 2.61721C52.4134 2.2684 53.5233 9.14529 54.0391 12.2022C56.5358 26.9918 52.8595 50.043 46.2934 63.5114C40.7124 74.9609 27.8972 91.002 13.3634 86.4294C0.985814 82.5354 0.522844 66.3526 2.49945 55.8185C3.09771 52.6348 4.08496 49.5483 5.04261 46.4619L5.2223 46.6712C5.35125 46.3012 5.07009 46.3689 5.06797 46.3477C5.06375 46.2864 5.49712 45.2886 5.54363 45.1956C5.59436 45.1004 5.82056 45.0772 5.83536 45.0497C5.85227 45.0201 5.67258 44.8954 5.69161 44.7622C5.76349 44.2485 6.05733 44.016 6.15881 43.7284C8.47365 37.1264 13.5917 27.5245 17.7098 21.8103C18.5216 20.6836 18.6315 20.7111 19.6716 19.9183C20.6884 19.1425 19.8851 17.3223 18.7964 17.6922C17.5872 18.1045 15.9234 21.2649 15.2491 22.4086C7.73586 35.1413 0.43617 48.7704 0.0323931 63.9173C-0.248771 74.4176 3.42327 86.6937 15.23 88.6724C31.7785 91.446 45.3569 71.3734 50.3671 57.9959C55.3583 44.665 58.4659 23.4233 55.5147 9.42857H55.5126Z" fill="#141414"/>
<path d="M52.7977 58.9429C52.9732 58.1903 52.9648 58.1903 53.2607 57.4842C54.2437 55.144 54.8272 52.455 55.2817 49.9774C55.3853 49.415 55.7109 48.4722 55.639 47.9775C55.5185 47.1721 55.6348 46.4893 55.6411 45.6859C55.6411 45.4893 55.6517 45.2885 55.6453 45.0919C55.6326 44.779 55.4255 44.371 55.6791 44.0983L55.7172 44.4661C55.8948 44.4725 55.8039 43.982 55.7785 43.9567C55.7426 43.9186 55.5798 43.9926 55.5629 43.9102C55.5523 43.851 55.5206 43.0963 55.5312 43.0561C55.5608 42.9229 55.7447 42.8574 55.7151 42.6946C55.3494 42.8954 55.5269 42.5255 55.4952 42.2147C55.2606 39.9337 54.6475 37.9423 54.0915 35.7522C53.6624 35.1518 53.47 34.4457 53.1466 33.7798C52.8696 33.2111 52.3432 32.4839 52.172 31.911C51.9648 31.6658 50.8867 30.3847 50.8021 30.2092C50.7197 30.038 50.9311 29.8942 50.5421 29.6638C50.3518 29.5518 50.113 29.6258 50.1785 29.3636C50.5336 29.4334 50.1954 29.1586 50.0242 29.074C49.4174 28.778 49.1616 28.2707 48.6247 27.8902C48.259 27.6301 47.7262 27.4737 47.3774 27.1439C47.1766 26.9452 47.5148 27.0636 47.5212 27.1481L47.5169 27.0044C47.1026 26.8226 46.7348 26.5435 46.3416 26.3342C44.8533 25.5415 42.9274 24.8502 41.2679 24.5542C40.9593 24.4993 40.6908 24.5056 40.3377 24.3745C40.2701 24.3492 40.2891 24.2329 40.2384 24.2266C40.0883 24.2075 39.6444 24.328 39.3568 24.3069C38.1793 24.2181 37.3274 24.1166 36.1097 24.2308C35.6066 24.2773 35.0802 24.4232 34.5707 24.457C34.15 23.8186 33.4503 23.4676 32.7062 23.3514C31.1862 23.1125 29.0574 23.9391 27.6537 24.5648C17.9165 28.9028 8.96578 36.9952 4.45024 46.707C-0.352799 57.0382 -0.321089 70.3861 4.37625 80.7067C5.01257 82.104 5.79264 83.3196 6.90038 84.3872C6.9638 84.5161 6.80525 84.5183 6.71646 84.4971C6.37188 84.4168 5.9216 83.6156 5.60872 83.3894C5.55376 83.3767 5.55798 83.4655 5.57278 83.4993C5.61295 83.5965 6.02307 84.0891 6.12454 84.2033C6.28098 84.3787 6.53677 84.5352 6.65516 84.6684C6.97437 85.0277 7.23017 85.4421 7.56418 85.7888C7.3549 85.9241 7.2196 85.6323 7.0843 85.5309C6.67841 85.2328 6.24715 84.8671 5.90257 84.4971C5.73979 84.3238 5.57912 84.0637 5.41212 83.8798C5.35927 83.8227 5.29585 83.6642 5.20283 83.7931C5.84338 84.6409 6.53466 85.4717 7.39295 86.108C7.7629 86.3828 8.50915 86.7316 8.7882 87.0022C8.91293 87.1227 8.89813 87.3151 9.07782 87.4504C9.64649 87.8774 11.0608 88.2812 11.7732 88.4482C14.7476 89.1374 17.3056 89.074 20.2694 88.3742C20.9248 88.2199 21.9331 87.8077 22.5399 87.7633C23.9478 87.6554 25.6242 86.7485 26.918 86.0869C31.9388 83.5183 37.302 79.8378 41.3144 75.891C44.6673 72.591 47.8827 68.5765 50.1912 64.4584C50.4892 63.9278 50.6795 63.3675 50.9311 62.8369C51.2693 62.1224 51.7217 61.4015 52.0578 60.6405C52.2333 60.2451 52.7195 59.2833 52.7977 58.945V58.9429ZM40.9424 28.5878L40.7352 28.6089L39.9086 28.2178C40.2912 28.2178 40.583 28.5032 40.9424 28.5878ZM40.7944 29.1797L40.5957 29.1945L40.2046 28.9577L40.7944 29.1797ZM39.8346 28.1459C39.8536 28.277 39.6676 28.2199 39.5936 28.203C39.4731 28.1755 39.2829 28.1354 39.2448 27.998L39.8346 28.1459ZM39.8346 28.7358L39.6084 28.7759L39.0228 28.5138L39.8346 28.7358ZM39.0968 27.924V27.9959C38.6064 27.9641 38.5937 27.7464 39.0968 27.924ZM8.00601 86.0467V86.1186C7.83266 86.1968 7.29359 85.664 8.00601 86.0467ZM39.137 75.4153C36.5494 78.7872 34.742 80.6961 30.9008 82.6875C25.0936 85.6979 18.1173 87.5751 11.9021 84.624C10.898 84.1462 10.0228 83.4169 9.18563 82.6875C6.51563 80.3558 5.11404 76.6541 4.25998 73.2865C2.83302 67.6632 2.71886 61.541 3.58561 55.8142C5.0929 45.8466 11.8218 36.1919 19.9016 30.3297C22.5695 28.3933 25.5396 26.5266 28.6642 25.4294C28.9009 25.347 29.4781 25.1335 29.6895 25.1166C29.8501 25.1039 29.9558 25.1927 30.0467 25.1948C30.0954 25.1948 30.0763 25.0531 30.1334 25.0405C30.2856 25.0045 30.4378 25.1081 30.5689 25.1081C30.7317 25.1081 30.8944 24.9644 31.0847 24.9665C31.1418 24.9665 31.406 25.0299 31.4166 25.0447C31.4906 25.144 31.3172 25.2413 31.2475 25.2815C30.9008 25.4759 30.3765 25.5753 29.9939 25.7275C25.7574 27.4145 21.6964 29.9386 18.6374 33.3507C18.2019 33.8369 17.6565 34.4711 17.4578 35.0884C18.0074 34.6233 18.5063 34.0884 19.0454 33.6107C19.8572 32.8898 20.707 32.2894 21.5886 31.651C22.0156 31.3423 22.4447 30.8519 22.9183 30.6172C23.914 30.1204 25.6792 29.1586 26.7087 28.9366C27.3788 28.7907 28.1124 28.7125 28.7762 28.5751C29.6197 28.3996 30.4611 28.0698 31.3405 28.0762L31.1925 28.2221C31.5878 28.2178 32.0191 28.1037 32.4102 28.0741C36.171 27.7908 39.5682 28.5349 42.7498 30.5855L42.8598 30.5475C42.2996 30.0718 41.6252 29.7441 40.9783 29.4017C40.8641 29.2854 41.0375 29.3425 41.0925 29.3594C41.5258 29.4989 42.7477 30.1754 43.0775 30.4756C43.2509 30.6341 43.2678 30.8096 43.4136 30.9534C43.6589 31.1965 44.2064 31.4903 44.5214 31.7651C45.5425 32.6594 46.5762 34.0377 47.3225 35.1666C48.0412 36.2574 48.8424 38.4687 49.2314 39.7561C49.6035 40.9907 49.8106 42.0477 49.9502 43.3203C49.9798 43.5846 50.0495 43.8742 50.0897 44.1406C50.2821 45.3794 50.3666 46.6203 50.3814 47.8993C50.5019 58.129 45.1852 67.5258 39.1349 75.4132L39.137 75.4153Z" fill="#141414"/>
<path d="M57.7635 22.7363C50.4871 15.8805 41.2446 17.3963 33.3551 22.2331C27.9517 25.5458 24.3114 27.5287 20.1912 32.5664C11.5174 43.1661 -1.50497 66.0693 4.22401 79.8337C8.01655 88.943 17.2146 90.4841 25.8483 87.645C39.7585 83.0702 53.6835 69.0099 59.5414 55.7635C63.8815 45.9503 66.4606 30.9323 57.7614 22.7363H57.7635ZM26.9962 85.6705C12.0881 91.2811 2.2622 82.954 4.34873 67.3927C5.85391 56.1694 15.8786 37.7204 24.1253 29.9451C24.4298 29.6575 24.9752 29.0846 25.3367 29.0487L24.7913 29.8309L24.675 29.6343L23.6983 30.8435L23.8547 30.9196L23.3875 31.2325L23.544 31.3086C23.2628 31.5876 23.1022 31.9703 22.876 32.2832C21.8887 33.6425 20.9184 35.0758 20.151 36.7374C20.0115 37.0397 20.1214 37.2574 20.1108 37.2807C20.1066 37.2913 19.9037 37.2469 19.8677 37.3293C18.2272 41.0732 16.7834 47.5041 18.2759 51.4129C18.3287 51.5524 18.3266 51.8526 18.5465 51.804C18.5465 51.5038 18.8403 51.248 18.8678 50.9837C18.965 50.0218 18.5908 48.3222 18.6247 47.1552C18.8318 39.8894 23.8822 30.9851 29.478 26.4675C31.4821 24.8503 31.5519 25.6642 33.5581 25.2456C35.1541 24.9116 34.4037 23.5079 32.9915 23.6981C40.7626 18.3729 51.3179 17.0707 58.0828 24.7551C63.4841 30.8921 63.1099 39.8386 61.165 47.3075C57.1124 62.875 42.0945 79.9838 26.9983 85.6641L26.9962 85.6705Z" fill="#141414"/>
</svg>
